<?xml version="1.0" standalone="no"?>
<!DOCTYPE svg PUBLIC "-//W3C//DTD SVG 20010904//EN"
 "http://www.w3.org/TR/2001/REC-SVG-20010904/DTD/svg10.dtd">
<svg version="1.0" xmlns="http://www.w3.org/2000/svg"
 width="1280.000000pt" height="1280.000000pt" viewBox="0 0 1280.000000 1280.000000"
 preserveAspectRatio="xMidYMid meet">
<metadata>
Created by potrace 1.14, written by Peter Selinger 2001-2017
</metadata>
<g transform="translate(0.000000,1280.000000) scale(0.100000,-0.100000)"
fill="#000000" stroke="none">
<path d="M2553 12784 c-199 -52 -329 -224 -368 -482 -3 -21 -8 -49 -10 -62 -3
-14 -8 -65 -12 -115 -7 -86 -7 -150 -2 -610 2 -110 -1 -220 -5 -245 -4 -25 -9
-54 -10 -65 -11 -73 -78 -132 -191 -170 -70 -24 -192 -30 -267 -15 -80 17
-100 27 -94 48 18 60 24 238 11 312 -45 258 -198 443 -445 534 -112 42 -101
38 -155 51 -61 14 -199 13 -240 -3 -112 -42 -187 -139 -212 -273 -16 -85 -8
-278 16 -394 13 -60 27 -114 32 -119 5 -6 9 -20 9 -33 0 -13 4 -31 9 -41 5 -9
19 -44 32 -77 44 -119 176 -370 217 -413 6 -8 17 -23 24 -35 20 -39 113 -150
189 -227 142 -144 256 -216 434 -276 105 -35 271 -74 335 -79 19 -2 48 -6 64
-9 143 -27 682 -28 1001 -1 70 6 173 15 220 21 22 2 63 6 90 9 28 3 66 8 85
10 19 2 64 7 100 11 36 3 67 8 70 9 3 2 37 6 75 9 39 4 86 8 105 11 19 3 53 7
75 10 22 3 54 7 70 9 27 4 87 11 184 22 19 2 48 6 66 8 62 10 173 18 287 20
127 3 198 -13 303 -66 152 -79 405 -305 598 -537 80 -96 93 -116 82 -128 -8
-7 -16 -13 -19 -13 -8 0 -189 -131 -238 -172 l-37 -31 -105 69 c-217 142 -460
277 -636 353 -30 12 -69 29 -87 37 -17 8 -34 14 -38 14 -4 0 -21 6 -38 14 -40
19 -177 64 -211 70 -14 3 -30 7 -34 10 -8 5 -108 26 -192 41 -19 4 -89 8 -155
10 -159 4 -287 -20 -400 -78 -44 -22 -155 -104 -156 -115 0 -4 -3 -16 -6 -27
-11 -48 -10 -209 3 -272 55 -262 283 -588 599 -857 33 -28 62 -53 65 -56 32
-35 339 -266 468 -352 l70 -48 -40 -107 c-40 -108 -46 -127 -49 -141 -1 -4 -7
-23 -15 -42 -16 -42 -90 -328 -99 -385 -9 -58 -16 -94 -25 -145 -5 -24 -6 -48
-4 -52 3 -5 2 -8 -3 -8 -4 0 -8 -12 -9 -27 0 -16 -4 -55 -7 -88 -26 -233 -27
-558 -2 -775 5 -42 2 -48 -37 -91 -92 -98 -117 -128 -204 -239 -189 -240 -357
-523 -473 -795 -23 -55 -47 -109 -52 -120 -27 -60 -121 -349 -133 -411 -2 -10
-11 -46 -20 -80 -9 -33 -23 -96 -31 -140 -22 -110 -23 -114 -30 -159 -3 -22
-8 -53 -11 -70 -5 -30 -8 -57 -19 -170 -24 -250 -20 -560 10 -810 21 -173 26
-199 72 -400 14 -66 28 -124 29 -130 13 -60 87 -279 131 -390 53 -133 154
-348 209 -445 47 -82 147 -245 154 -250 4 -3 23 -30 42 -60 40 -61 36 -56 167
-219 115 -143 359 -387 506 -504 236 -189 487 -343 746 -457 52 -23 108 -48
124 -55 162 -71 560 -177 755 -200 30 -4 66 -9 80 -11 168 -26 660 -25 800 1
14 2 45 7 70 10 25 2 55 7 66 9 12 2 37 7 55 10 316 51 751 210 1061 387 84
48 209 126 233 146 6 4 30 21 55 38 25 16 65 45 90 65 24 19 51 40 60 47 163
126 379 334 505 488 22 26 47 55 56 64 26 27 152 200 215 296 89 134 125 197
204 350 164 319 295 711 354 1060 43 256 51 360 51 660 -1 227 -7 377 -19 445
-3 14 -7 43 -10 65 -12 92 -17 131 -22 144 -3 8 -7 30 -10 50 -3 19 -12 64
-20 100 -8 36 -17 77 -20 91 -3 14 -8 34 -11 45 -4 11 -8 25 -9 30 -5 25 -39
138 -66 220 -128 381 -340 777 -583 1085 -70 90 -67 81 -50 165 3 10 7 35 10
55 3 20 8 47 10 60 3 14 7 45 10 70 3 25 8 59 10 75 32 244 33 650 1 865 -3
19 -8 57 -11 83 -3 26 -10 71 -16 100 -5 29 -12 63 -14 77 -9 49 -34 156 -49
210 -8 30 -11 59 -6 63 4 5 59 29 121 53 136 54 121 47 293 128 193 92 324
167 505 293 85 59 244 221 298 304 83 128 120 292 79 353 -30 47 -88 106 -102
106 -8 0 -14 4 -14 9 0 12 -109 59 -188 81 -61 17 -118 26 -212 36 -49 5 -317
5 -365 0 -22 -2 -71 -7 -110 -10 -38 -4 -81 -9 -95 -11 -14 -2 -45 -7 -70 -10
-70 -8 -113 -14 -142 -20 -15 -4 -39 -8 -55 -10 -27 -3 -267 -51 -308 -62 -11
-2 -29 -6 -40 -8 -11 -1 -40 -8 -65 -15 -43 -12 -54 -14 -101 -25 -11 -2 -29
-7 -39 -10 -14 -4 -30 6 -57 36 -173 193 -382 366 -597 494 -18 11 -16 13 58
95 39 43 189 183 241 225 28 22 52 43 53 48 2 4 10 7 17 7 7 0 15 3 17 8 10
22 170 111 248 138 60 20 218 25 340 11 118 -14 235 -28 260 -33 14 -2 43 -7
65 -10 22 -2 69 -9 105 -14 36 -5 83 -12 105 -15 23 -3 50 -7 60 -9 11 -2 49
-7 85 -12 36 -4 67 -8 70 -9 3 -1 32 -4 65 -9 33 -4 71 -9 85 -11 52 -7 207
-26 245 -29 22 -2 63 -7 90 -10 200 -23 356 -31 630 -31 237 0 340 5 435 19
14 2 50 7 80 11 30 4 58 9 61 11 3 2 20 6 38 9 176 31 379 122 490 219 92 81
207 202 256 271 11 16 25 33 31 39 5 6 41 60 78 119 136 217 236 474 264 677
9 63 8 247 -1 294 -14 74 -58 155 -108 200 -100 90 -248 98 -458 27 -260 -89
-418 -265 -467 -521 -10 -53 -11 -195 -2 -263 9 -65 5 -75 -33 -82 -13 -3 -37
-8 -54 -11 -65 -14 -183 -5 -252 19 -203 71 -218 116 -197 617 8 195 9 430 1
516 -38 405 -203 607 -497 607 -236 1 -393 -170 -475 -518 -3 -11 -21 -111
-30 -165 -31 -183 -36 -569 -10 -865 4 -44 9 -83 11 -87 9 -14 -109 -63 -226
-94 -78 -20 -256 -27 -325 -12 -71 15 -185 69 -221 106 -17 17 -42 61 -56 99
-21 57 -78 280 -94 373 -3 14 -10 43 -16 65 -6 22 -11 45 -13 50 -18 79 -68
227 -92 275 -51 99 -108 143 -180 142 -25 -1 -56 -8 -69 -17 -13 -8 -24 -13
-24 -10 0 3 -6 1 -12 -5 -7 -5 -38 -30 -69 -55 -62 -49 -113 -112 -153 -192
-14 -29 -26 -54 -25 -55 0 -2 -2 -10 -5 -18 -33 -84 -39 -324 -13 -460 3 -14
8 -47 12 -73 4 -27 9 -59 11 -70 13 -57 4 -110 -23 -146 -39 -51 -130 -136
-197 -186 -15 -11 -40 -30 -54 -43 -15 -12 -31 -26 -37 -30 -71 -54 -183 -139
-195 -149 -8 -6 -51 -40 -95 -74 -130 -102 -305 -251 -305 -260 0 -5 -5 -9
-10 -9 -15 0 -173 -164 -252 -263 l-71 -88 -56 8 c-72 10 -440 10 -511 0 -66
-9 -167 -25 -197 -31 -18 -4 -29 8 -66 72 -24 42 -76 118 -115 167 -74 93
-273 294 -377 380 -33 28 -64 55 -70 61 -8 9 -93 78 -130 107 -5 4 -21 17 -35
28 -14 11 -40 33 -59 47 -359 284 -460 379 -481 450 -4 17 -4 48 0 69 5 21 11
56 14 78 3 22 9 53 12 68 14 67 28 209 28 282 -1 229 -85 405 -254 532 -100
76 -199 71 -268 -12 -59 -73 -138 -271 -168 -425 -3 -14 -10 -43 -16 -65 -6
-22 -13 -48 -15 -58 -2 -10 -16 -69 -32 -130 -57 -217 -86 -269 -180 -319
-129 -70 -280 -84 -476 -44 -37 7 -150 47 -198 69 -45 21 -47 23 -42 57 9 67
15 122 22 203 9 111 9 618 0 687 -4 30 -9 75 -12 100 -11 81 -36 194 -61 267
-64 194 -145 302 -271 365 -53 26 -75 31 -155 33 -58 2 -113 -2 -145 -11z"/>
</g>
</svg>
